<?xml version="1.0" encoding="utf-8"?><svg xmlns="http://www.w3.org/2000/svg" width="280" height="250" preserveAspectRatio="xMidYMid" xmlns:xlink="http://www.w3.org/1999/xlink" style="margin-right:-2px;display:block;animation-play-state:paused" ><style type="text/css" style="animation-play-state:paused" >text {
    text-anchor: middle; font-size: 80px; opacity: 0;
  }</style>


<g style="transform-origin:140px 125px;transform:matrix(1, 0, 0, 1, 0, 0);animation-play-state:paused" ><g transform="translate(140,125)" style="transform:matrix(1, 0, 0, 1, 140, 125);animation-play-state:paused" ><g transform="translate(0,0)" style="transform:matrix(1, 0, 0, 1, 0, 0);animation-play-state:paused" ><g class="path" style="transform-origin:-82.67px -4.9868px;animation-timing-function:linear;animation-play-state:paused;animation-name:static-eb32eba8-3853-4f55-b839-3119d5ce0c1c;animation-iteration-count:infinite;animation-fill-mode:forwards;animation-duration:1s;animation-delay:-0.495s" ><path d="M46.76-7.15L46.76 0L6.37 0L6.37-56.25L21.88-56.25L21.88-7.15L46.76-7.15" fill="#51cacc" stroke="none" stroke-width="none" transform="translate(-109.2349853515625,23.138199768066407)" style="transform:matrix(1, 0, 0, 1, -109.235, 23.1382);fill:rgb(81, 202, 204);animation-play-state:paused" ></path></g>
<g class="path" style="transform-origin:-28.7214px 0.383198px;animation-timing-function:linear;animation-play-state:paused;animation-name:static-eb32eba8-3853-4f55-b839-3119d5ce0c1c;animation-iteration-count:infinite;animation-fill-mode:forwards;animation-duration:1s;animation-delay:-0.33s" ><path d="M107.62-26.91L107.62-26.91L107.62-26.17L107.62-26.17Q107.54-22.89 106.93-19.38L106.93-19.38L106.93-19.38Q106.33-15.86 105.23-12.34L105.23-12.34L105.23-12.34Q104.14-8.83 102.62-5.39L102.62-5.39L102.62-5.39Q101.09-1.95 99.20 1.19L99.20 1.19L99.20 1.19Q97.30 4.34 95.12 7.09L95.12 7.09L95.12 7.09Q92.93 9.84 90.51 11.95L90.51 11.95L84.69 8.59L84.69 8.59Q86.05 6.29 87.17 3.57L87.17 3.57L87.17 3.57Q88.28 0.86 89.18-2.11L89.18-2.11L89.18-2.11Q90.08-5.08 90.72-8.20L90.72-8.20L90.72-8.20Q91.37-11.33 91.80-14.41L91.80-14.41L91.80-14.41Q92.23-17.50 92.44-20.49L92.44-20.49L92.44-20.49Q92.66-23.48 92.66-26.17L92.66-26.17L92.66-26.17Q92.66-28.28 92.64-30.96L92.64-30.96L92.64-30.96Q92.62-33.63 92.32-36.41L92.32-36.41L92.32-36.41Q92.03-39.18 91.37-41.82L91.37-41.82L91.37-41.82Q90.70-44.45 89.39-46.52L89.39-46.52L89.39-46.52Q88.09-48.59 86.04-49.84L86.04-49.84L86.04-49.84Q83.98-51.09 80.94-51.09L80.94-51.09L80.94-51.09Q78.24-51.09 76.31-50.18L76.31-50.18L76.31-50.18Q74.38-49.26 73.03-47.71L73.03-47.71L73.03-47.71Q71.68-46.17 70.88-44.14L70.88-44.14L70.88-44.14Q70.08-42.11 69.63-39.86L69.63-39.86L69.63-39.86Q69.18-37.62 69.04-35.33L69.04-35.33L69.04-35.33Q68.91-33.05 68.91-31.02L68.91-31.02L68.91-20.12L85.74-20.12L85.74-13.67L68.91-13.67L68.91 0L53.40 0L53.40-28.59L53.40-28.59Q53.40-34.73 55.35-40L55.35-40L55.35-40Q57.30-45.27 60.88-49.16L60.88-49.16L60.88-49.16Q64.45-53.05 69.47-55.25L69.47-55.25L69.47-55.25Q74.49-57.46 80.66-57.46L80.66-57.46L80.66-57.46Q84.84-57.46 88.50-56.27L88.50-56.27L88.50-56.27Q92.15-55.08 95.16-52.99L95.16-52.99L95.16-52.99Q98.16-50.90 100.53-48.03L100.53-48.03L100.53-48.03Q102.89-45.16 104.47-41.76L104.47-41.76L104.47-41.76Q106.05-38.36 106.88-34.57L106.88-34.57L106.88-34.57Q107.70-30.78 107.62-26.91" fill="#51cacc" stroke="none" stroke-width="none" transform="translate(-109.2349853515625,23.138199768066407)" style="transform:matrix(1, 0, 0, 1, -109.235, 23.1382);fill:rgb(157, 248, 113);animation-play-state:paused" ></path></g>
<g class="path" style="transform-origin:34.36px -4.9868px;animation-timing-function:linear;animation-play-state:paused;animation-name:static-eb32eba8-3853-4f55-b839-3119d5ce0c1c;animation-iteration-count:infinite;animation-fill-mode:forwards;animation-duration:1s;animation-delay:-0.165s" ><path d="M169.49-15.27L169.49-15.27L169.49-15.27Q169.49-12.89 168.71-10.82L168.71-10.82L168.71-10.82Q167.93-8.75 166.56-7.05L166.56-7.05L166.56-7.05Q165.20-5.35 163.38-4.02L163.38-4.02L163.38-4.02Q161.56-2.70 159.47-1.80L159.47-1.80L159.47-1.80Q157.38-0.90 155.16-0.45L155.16-0.45L155.16-0.45Q152.93 0 150.78 0L150.78 0L117.70 0L117.70-56.25L147.93-56.25L147.93-56.25Q149.92-56.25 152.11-55.96L152.11-55.96L152.11-55.96Q154.30-55.66 156.39-55.04L156.39-55.04L156.39-55.04Q158.48-54.41 160.37-53.40L160.37-53.40L160.37-53.40Q162.27-52.38 163.69-50.92L163.69-50.92L163.69-50.92Q165.12-49.45 165.96-47.54L165.96-47.54L165.96-47.54Q166.80-45.63 166.80-43.16L166.80-43.16L166.80-43.16Q166.80-40.82 165.86-38.91L165.86-38.91L165.86-38.91Q164.92-36.99 163.34-35.49L163.34-35.49L163.34-35.49Q161.76-33.98 159.71-32.83L159.71-32.83L159.71-32.83Q157.66-31.68 155.39-30.82L155.39-30.82L155.39-30.82Q158.24-30.04 160.80-28.75L160.80-28.75L160.80-28.75Q163.36-27.46 165.29-25.59L165.29-25.59L165.29-25.59Q167.23-23.71 168.36-21.15L168.36-21.15L168.36-21.15Q169.49-18.59 169.49-15.27zM151.05-41.80L151.05-41.80L151.05-41.80Q151.05-46.56 148.54-48.75L148.54-48.75L148.54-48.75Q146.02-50.94 141.37-50.94L141.37-50.94L133.20-50.94L133.20-32.70L140.04-32.70L140.04-32.70Q142.15-32.70 144.14-33.22L144.14-33.22L144.14-33.22Q146.13-33.75 147.68-34.86L147.68-34.86L147.68-34.86Q149.22-35.98 150.14-37.70L150.14-37.70L150.14-37.70Q151.05-39.41 151.05-41.80zM153.79-16.25L153.79-16.25L153.79-16.25Q153.79-18.55 153.20-20.57L153.20-20.57L153.20-20.57Q152.62-22.58 151.41-24.04L151.41-24.04L151.41-24.04Q150.20-25.51 148.38-26.35L148.38-26.35L148.38-26.35Q146.56-27.19 144.10-27.19L144.10-27.19L133.20-27.19L133.20-5.47L142.73-5.47L142.73-5.47Q145.12-5.47 147.15-6.25L147.15-6.25L147.15-6.25Q149.18-7.03 150.66-8.44L150.66-8.44L150.66-8.44Q152.15-9.84 152.97-11.84L152.97-11.84L152.97-11.84Q153.79-13.83 153.79-16.25" fill="#51cacc" stroke="none" stroke-width="none" transform="translate(-109.2349853515625,23.138199768066407)" style="transform:matrix(1, 0, 0, 1, -109.235, 23.1382);fill:rgb(224, 255, 119);animation-play-state:paused" ></path></g>
<g class="path" style="transform-origin:90.88px -5.1068px;animation-timing-function:linear;animation-play-state:paused;animation-name:static-eb32eba8-3853-4f55-b839-3119d5ce0c1c;animation-iteration-count:infinite;animation-fill-mode:forwards;animation-duration:1s" ><path d="M224.84-17.19L224.84-17.19L224.84-17.19Q224.84-13.55 223.93-10.78L223.93-10.78L223.93-10.78Q223.01-8.01 221.35-5.98L221.35-5.98L221.35-5.98Q219.69-3.95 217.42-2.58L217.42-2.58L217.42-2.58Q215.16-1.21 212.48-0.39L212.48-0.39L212.48-0.39Q209.80 0.43 206.82 0.78L206.82 0.78L206.82 0.78Q203.83 1.13 200.74 1.13L200.74 1.13L200.74 1.13Q196.68 1.13 193.24 0.53L193.24 0.53L193.24 0.53Q189.80-0.08 186.78-1.39L186.78-1.39L186.78-1.39Q183.75-2.70 180.96-4.77L180.96-4.77L180.96-4.77Q178.16-6.84 175.39-9.80L175.39-9.80L183.36-17.89L183.36-17.89Q184.45-15.20 186.37-12.91L186.37-12.91L186.37-12.91Q188.28-10.63 190.57-8.98L190.57-8.98L190.57-8.98Q192.85-7.34 195.31-6.41L195.31-6.41L195.31-6.41Q197.77-5.47 199.96-5.47L199.96-5.47L199.96-5.47Q202.54-5.47 204.80-5.84L204.80-5.84L204.80-5.84Q207.07-6.21 208.75-7.07L208.75-7.07L208.75-7.07Q210.43-7.93 211.39-9.36L211.39-9.36L211.39-9.36Q212.34-10.78 212.34-12.93L212.34-12.93L212.34-12.93Q212.34-14.57 211.60-15.74L211.60-15.74L211.60-15.74Q210.86-16.91 209.67-17.75L209.67-17.75L209.67-17.75Q208.48-18.59 206.95-19.18L206.95-19.18L206.95-19.18Q205.43-19.77 203.85-20.18L203.85-20.18L203.85-20.18Q202.27-20.59 200.74-20.92L200.74-20.92L200.74-20.92Q199.22-21.25 198.05-21.60L198.05-21.60L198.05-21.60Q195.74-22.27 193.24-23.03L193.24-23.03L193.24-23.03Q190.74-23.79 188.32-24.77L188.32-24.77L188.32-24.77Q185.90-25.74 183.73-27.01L183.73-27.01L183.73-27.01Q181.56-28.28 179.92-30.02L179.92-30.02L179.92-30.02Q178.28-31.76 177.30-34.04L177.30-34.04L177.30-34.04Q176.33-36.33 176.33-39.30L176.33-39.30L176.33-39.30Q176.33-42.85 177.21-45.61L177.21-45.61L177.21-45.61Q178.09-48.36 179.69-50.39L179.69-50.39L179.69-50.39Q181.29-52.42 183.48-53.81L183.48-53.81L183.48-53.81Q185.66-55.20 188.28-56.04L188.28-56.04L188.28-56.04Q190.90-56.88 193.85-57.25L193.85-57.25L193.85-57.25Q196.80-57.62 199.88-57.62L199.88-57.62L199.88-57.62Q204.10-57.62 207.56-56.84L207.56-56.84L207.56-56.84Q211.02-56.05 213.95-54.61L213.95-54.61L213.95-54.61Q216.88-53.16 219.32-51.15L219.32-51.15L219.32-51.15Q221.76-49.14 223.91-46.68L223.91-46.68L215.94-38.59L215.94-38.59Q215-41.41 213.34-43.67L213.34-43.67L213.34-43.67Q211.68-45.94 209.65-47.56L209.65-47.56L209.65-47.56Q207.62-49.18 205.39-50.06L205.39-50.06L205.39-50.06Q203.16-50.94 201.09-50.94L201.09-50.94L201.09-50.94Q198.40-50.94 196.13-50.57L196.13-50.57L196.13-50.57Q193.87-50.20 192.25-49.36L192.25-49.36L192.25-49.36Q190.63-48.52 189.73-47.09L189.73-47.09L189.73-47.09Q188.83-45.66 188.83-43.55L188.83-43.55L188.83-43.55Q188.83-41.88 189.49-40.70L189.49-40.70L189.49-40.70Q190.16-39.53 191.27-38.71L191.27-38.71L191.27-38.71Q192.38-37.89 193.79-37.36L193.79-37.36L193.79-37.36Q195.20-36.84 196.70-36.45L196.70-36.45L196.70-36.45Q198.20-36.05 199.67-35.76L199.67-35.76L199.67-35.76Q201.13-35.47 202.34-35.12L202.34-35.12L202.34-35.12Q204.69-34.45 207.27-33.71L207.27-33.71L207.27-33.71Q209.84-32.97 212.34-31.97L212.34-31.97L212.34-31.97Q214.84-30.98 217.11-29.69L217.11-29.69L217.11-29.69Q219.38-28.40 221.09-26.62L221.09-26.62L221.09-26.62Q222.81-24.84 223.83-22.52L223.83-22.52L223.83-22.52Q224.84-20.20 224.84-17.19" fill="#51cacc" stroke="none" stroke-width="none" transform="translate(-109.2349853515625,23.138199768066407)" style="transform:matrix(1, 0, 0, 1, -109.235, 23.1382);fill:rgb(222, 157, 214);animation-play-state:paused" ></path></g></g></g></g></svg>
